<svg width="107" height="107" viewBox="0 0 107 107" fill="none" xmlns="http://www.w3.org/2000/svg">
<rect x="2" y="2.39014" width="103" height="103" rx="51.5" stroke="#FCC5C0" stroke-width="3"/>
<g clip-path="url(#clip0_859_490)">
<path d="M75.8145 56.9175C76.3678 56.2664 76.791 55.4526 77.084 54.4761C77.377 53.4995 77.5234 52.5067 77.5234 51.4976C77.5234 50.8465 77.4502 50.2362 77.3037 49.6665C77.1572 49.0968 76.9538 48.5841 76.6934 48.1284C76.3353 47.575 75.8796 47.1437 75.3262 46.8345C74.7728 46.5252 74.1706 46.3706 73.5195 46.3706H66.9766C68.7344 43.1479 69.8411 40.3241 70.2969 37.8989C70.7526 35.4738 70.5247 33.4637 69.6133 31.8687C68.9948 30.7619 68.1891 29.9888 67.1963 29.5493C66.2034 29.1099 65.3164 28.8901 64.5352 28.8901C64.2096 28.8901 63.9329 28.9959 63.7051 29.2075C63.4772 29.4191 63.3307 29.6714 63.2656 29.9644C63.0378 31.6245 62.3216 33.3986 61.1172 35.2866C59.9128 37.1746 58.3177 38.9976 56.332 40.7554C55.388 41.6017 54.3952 42.4155 53.3535 43.1968C52.3118 43.9455 51.2376 44.6535 50.1309 45.3208C49.0241 45.9881 47.8848 46.5822 46.7129 47.103C45.541 47.6564 44.3529 48.1284 43.1484 48.519C42.8555 47.9006 42.3997 47.3879 41.7812 46.981C41.1628 46.5741 40.4792 46.3706 39.7305 46.3706H32.2598C31.2181 46.3706 30.3311 46.7368 29.5986 47.4692C28.8662 48.2017 28.5 49.0887 28.5 50.1304V72.6401C28.5 73.6818 28.8662 74.5688 29.5986 75.3013C30.3311 76.0337 31.2181 76.3999 32.2598 76.3999H39.7305C40.5443 76.3999 41.2604 76.172 41.8789 75.7163C42.4974 75.2606 42.9531 74.6909 43.2461 74.0073C45.6875 74.3328 47.4941 74.7235 48.666 75.1792C49.8379 75.6349 50.8796 76.0907 51.791 76.5464C52.8978 77.1649 54.1836 77.7101 55.6484 78.1821C57.1133 78.6541 59.571 78.8901 63.0215 78.8901C63.9329 78.8901 64.7956 78.7762 65.6094 78.5483C66.4232 78.3205 67.1556 77.995 67.8066 77.5718C68.4251 77.1486 68.9297 76.6522 69.3203 76.0825C69.7109 75.5129 69.9714 74.8862 70.1016 74.2026C70.6224 74.0073 71.0944 73.6818 71.5176 73.2261C71.9408 72.7703 72.3314 72.1844 72.6895 71.4683C73.015 70.7847 73.2754 70.0441 73.4707 69.2466C73.666 68.4491 73.7637 67.7248 73.7637 67.0737C73.7637 66.9435 73.7637 66.8215 73.7637 66.7075C73.7637 66.5936 73.7474 66.4878 73.7148 66.3901C74.0404 66.1623 74.3415 65.8693 74.6182 65.5112C74.8949 65.1532 75.1471 64.73 75.375 64.2417C75.7331 63.5907 76.0016 62.8582 76.1807 62.0444C76.3597 61.2306 76.4492 60.4494 76.4492 59.7007C76.4492 59.1798 76.4004 58.6997 76.3027 58.2603C76.2051 57.8208 76.0749 57.422 75.9121 57.064C75.8796 57.0314 75.8551 57.007 75.8389 56.9907C75.8226 56.9744 75.8145 56.95 75.8145 56.9175ZM39.7305 73.9097H32.2598C31.9017 73.9097 31.6006 73.7876 31.3564 73.5435C31.1123 73.2993 30.9902 72.9982 30.9902 72.6401V50.1304C30.9902 49.8048 31.1123 49.52 31.3564 49.2759C31.6006 49.0317 31.9017 48.9097 32.2598 48.9097H39.7305C40.0885 48.9097 40.3896 49.0317 40.6338 49.2759C40.8779 49.52 41 49.8048 41 50.1304V72.6401C41 72.9982 40.8779 73.2993 40.6338 73.5435C40.3896 73.7876 40.0885 73.9097 39.7305 73.9097ZM74.3496 54.5737C74.1543 54.9644 73.9753 55.2329 73.8125 55.3794C73.6497 55.5259 73.5195 55.5991 73.4219 55.5991C73.0638 55.5991 72.7627 55.7212 72.5186 55.9653C72.2744 56.2095 72.1523 56.5106 72.1523 56.8687C72.1523 57.1942 72.2744 57.479 72.5186 57.7231C72.7627 57.9673 73.0638 58.0894 73.4219 58.0894C73.487 58.0894 73.5358 58.0975 73.5684 58.1138C73.6009 58.13 73.6497 58.187 73.7148 58.2847C73.8125 58.4474 73.8776 58.6509 73.9102 58.895C73.9427 59.1392 73.959 59.4077 73.959 59.7007C73.959 60.2541 73.8857 60.84 73.7393 61.4585C73.5928 62.077 73.4056 62.6466 73.1777 63.1675C72.9173 63.6558 72.6732 64.0057 72.4453 64.2173C72.2174 64.4289 72.0547 64.5347 71.957 64.5347C71.599 64.5347 71.2979 64.6567 71.0537 64.9009C70.8096 65.145 70.6875 65.4299 70.6875 65.7554C70.6875 65.9832 70.7363 66.1867 70.834 66.3657C70.9316 66.5448 71.0781 66.6994 71.2734 66.8296C71.306 67.2202 71.2246 67.855 71.0293 68.7339C70.834 69.6128 70.4922 70.4103 70.0039 71.1265C69.8411 71.3869 69.6621 71.5903 69.4668 71.7368C69.2715 71.8833 69.1087 71.9565 68.9785 71.9565C68.6204 71.9565 68.3193 72.0786 68.0752 72.3228C67.8311 72.5669 67.709 72.8517 67.709 73.1772C67.709 74.284 67.2126 75.0978 66.2197 75.6187C65.2269 76.1395 64.1608 76.3999 63.0215 76.3999C59.8965 76.3999 57.6911 76.1965 56.4053 75.7896C55.1195 75.3826 53.972 74.9025 52.9629 74.3491C52.0189 73.8608 50.8796 73.3563 49.5449 72.8354C48.2103 72.3146 46.1921 71.8752 43.4902 71.5171V51.0581C44.8249 50.6349 46.127 50.1304 47.3965 49.5444C48.6986 48.9585 49.96 48.3075 51.1807 47.5913C52.4014 46.8752 53.5977 46.1102 54.7695 45.2964C55.9089 44.45 56.9993 43.5549 58.041 42.6108C60.0267 40.8205 61.6543 38.9813 62.9238 37.0933C64.1934 35.2052 65.056 33.366 65.5117 31.5757C65.8698 31.6733 66.2197 31.8442 66.5615 32.0884C66.9033 32.3325 67.2044 32.6662 67.4648 33.0894C67.888 33.8381 68.0182 35.2622 67.8555 37.3618C67.6927 39.4614 66.3092 42.6759 63.7051 47.0054C63.6074 47.2007 63.5586 47.4123 63.5586 47.6401C63.5586 47.868 63.6074 48.0796 63.7051 48.2749C63.8027 48.4702 63.9492 48.6248 64.1445 48.7388C64.3398 48.8527 64.5514 48.9097 64.7793 48.9097H73.5195C73.7474 48.9097 73.9508 48.9504 74.1299 49.0317C74.3089 49.1131 74.4635 49.2677 74.5938 49.4956C74.724 49.7235 74.8298 50.0083 74.9111 50.3501C74.9925 50.6919 75.0332 51.0744 75.0332 51.4976C75.0332 52.0509 74.9681 52.5962 74.8379 53.1333C74.7077 53.6704 74.5449 54.1506 74.3496 54.5737Z" fill="#FCC5C0"/>
</g>
<defs>
<clipPath id="clip0_859_490">
<rect width="50" height="50" fill="white" transform="matrix(1 0 0 -1 28.5 78.8901)"/>
</clipPath>
</defs>
</svg>
