<svg width="107" height="107" viewBox="0 0 107 107" fill="none" xmlns="http://www.w3.org/2000/svg">
<rect x="2" y="2.39014" width="103" height="103" rx="51.5" stroke="#FCC5C0" stroke-width="3"/>
<g clip-path="url(#clip0_859_477)">
<path d="M75.7656 46.9077L68.2461 36.8979C68.1484 36.7677 68.0345 36.6619 67.9043 36.5806C67.7741 36.4992 67.6276 36.4422 67.4648 36.4097L52.4746 33.9194C52.4095 33.8869 52.3363 33.8706 52.2549 33.8706C52.1735 33.8706 52.1003 33.8869 52.0352 33.9194L37.0449 36.4097C36.8822 36.4422 36.7357 36.4992 36.6055 36.5806C36.4753 36.6619 36.3613 36.7677 36.2637 36.8979L28.7441 46.9077C28.5814 47.1356 28.5 47.396 28.5 47.689C28.5 47.9819 28.6139 48.2423 28.8418 48.4702L51.3027 73.4702C51.4329 73.6004 51.5794 73.7062 51.7422 73.7876C51.9049 73.869 52.0677 73.9097 52.2305 73.9097C52.4258 73.9097 52.6048 73.869 52.7676 73.7876C52.9303 73.7062 53.0605 73.6004 53.1582 73.4702L75.668 48.4702C75.8633 48.2423 75.9691 47.9819 75.9854 47.689C76.0016 47.396 75.9284 47.1356 75.7656 46.9077ZM60.4824 46.3706L52.2305 68.978L44.0273 46.3706H60.4824ZM45.248 43.8804L52.2305 36.8979L59.2129 43.8804H45.248ZM55.8926 36.9956L65.1211 38.5581L62.0449 43.1968L55.8926 36.9956ZM42.4648 43.1968L39.3398 38.5581L48.6172 36.9956L42.4648 43.1968ZM40.1699 44.271L32.6992 45.7847L37.1914 39.8276L40.1699 44.271ZM41.4395 46.5659L48.8613 67.0249L32.1621 48.4214L41.4395 46.5659ZM63.0703 46.5659L72.3477 48.4214L55.5996 67.0249L63.0703 46.5659ZM64.3398 44.271L67.3184 39.8276L71.8105 45.7847L64.3398 44.271Z" fill="#FCC5C0"/>
</g>
<defs>
<clipPath id="clip0_859_477">
<rect width="50" height="50" fill="white" transform="matrix(1 0 0 -1 28.5 78.8901)"/>
</clipPath>
</defs>
</svg>
