<svg width="24" height="25" viewBox="0 0 24 25" fill="none" xmlns="http://www.w3.org/2000/svg">
<path d="M4.8 20.9839C4.5968 20.9729 4.40431 20.8893 4.2575 20.7483C4.1107 20.6074 4.01933 20.4185 4 20.2159V10.2499C4.01913 10.0473 4.11044 9.85822 4.25728 9.71725C4.40413 9.57628 4.59673 9.49276 4.8 9.48191H19.2C19.404 9.49047 19.5979 9.57324 19.7452 9.71465C19.8925 9.85607 19.9831 10.0464 20 10.2499V20.2159C19.9831 20.4194 19.8925 20.6098 19.7452 20.7512C19.5979 20.8926 19.404 20.9754 19.2 20.9839H4.8ZM10 12.4099C10 12.6751 10.1054 12.9295 10.2929 13.117C10.4804 13.3046 10.7348 13.4099 11 13.4099H13C13.2652 13.4099 13.5196 13.3046 13.7071 13.117C13.8946 12.9295 14 12.6751 14 12.4099C14 12.1447 13.8946 11.8903 13.7071 11.7028C13.5196 11.5153 13.2652 11.4099 13 11.4099H11C10.7348 11.4099 10.4804 11.5153 10.2929 11.7028C10.1054 11.8903 10 12.1447 10 12.4099ZM4.8 8.40991C4.59245 8.39587 4.39702 8.30708 4.24993 8.15998C4.10283 8.01289 4.01404 7.81746 4 7.60991V5.20991C4.01404 5.00236 4.10283 4.80694 4.24993 4.65984C4.39702 4.51274 4.59245 4.42395 4.8 4.40991H19.2C19.4076 4.42395 19.603 4.51274 19.7501 4.65984C19.8972 4.80694 19.986 5.00236 20 5.20991V7.60991C19.986 7.81746 19.8972 8.01289 19.7501 8.15998C19.603 8.30708 19.4076 8.39587 19.2 8.40991H4.8Z" fill="black"/>
</svg>
