<svg width="24" height="25" viewBox="0 0 24 25" fill="none" xmlns="http://www.w3.org/2000/svg">
<path d="M3.50391 13.3218H9.91191V14.9298H14.0399V13.3218H20.4959V18.4338C20.4959 18.8818 20.3319 19.2378 20.0039 19.5018C19.6759 19.7658 19.3039 19.8978 18.8879 19.8978H5.08791C4.65591 19.8978 4.28391 19.7658 3.97191 19.5018C3.65991 19.2378 3.50391 18.8818 3.50391 18.4338V13.3218ZM3.50391 11.9778V9.04983C3.50391 8.60183 3.65991 8.24583 3.97191 7.98183C4.28391 7.71783 4.65591 7.58583 5.08791 7.58583H18.8879C19.3039 7.58583 19.6759 7.71783 20.0039 7.98183C20.3319 8.24583 20.4959 8.60183 20.4959 9.04983V11.9778H3.50391ZM13.5599 3.67383C14.0079 3.67383 14.3799 3.81383 14.6759 4.09383C14.9719 4.37383 15.1199 4.72983 15.1199 5.16183V6.43383H8.85591V5.16183C8.85591 4.72983 9.01191 4.37383 9.32391 4.09383C9.63591 3.81383 10.0079 3.67383 10.4399 3.67383H13.5599Z" fill="black"/>
</svg>
