<svg width="14" height="12" viewBox="0 0 14 12" fill="none" xmlns="http://www.w3.org/2000/svg">
<path d="M13.7266 4.16797C13.8359 4.08594 14 4.16797 14 4.30469V9.88281C14 10.6211 13.3984 11.1953 12.6875 11.1953H1.3125C0.574219 11.1953 0 10.6211 0 9.88281V4.30469C0 4.16797 0.136719 4.08594 0.246094 4.16797C0.875 4.66016 1.66797 5.26172 4.45703 7.28516C5.03125 7.69531 6.01562 8.59766 7 8.59766C7.95703 8.59766 8.96875 7.69531 9.51562 7.28516C12.3047 5.26172 13.0977 4.66016 13.7266 4.16797ZM7 7.69531C6.34375 7.72266 5.44141 6.90234 4.97656 6.57422C1.33984 3.94922 1.06641 3.70312 0.246094 3.04688C0.0820312 2.9375 0 2.74609 0 2.52734V2.00781C0 1.29688 0.574219 0.695312 1.3125 0.695312H12.6875C13.3984 0.695312 14 1.29688 14 2.00781V2.52734C14 2.74609 13.8906 2.9375 13.7266 3.04688C12.9062 3.70312 12.6328 3.94922 8.99609 6.57422C8.53125 6.90234 7.62891 7.72266 7 7.69531Z" fill="#407088"/>
</svg>
