<svg width="15" height="15" viewBox="0 0 15 15" fill="none" xmlns="http://www.w3.org/2000/svg">
<g clip-path="url(#clip0_859_608)">
<path d="M7.56006 0.314453C6.59391 0.314453 5.68701 0.496745 4.83936 0.861328C3.9917 1.23503 3.25114 1.73861 2.61768 2.37207C1.98421 3.00553 1.48063 3.74609 1.10693 4.59375C0.74235 5.44141 0.560059 6.34831 0.560059 7.31445C0.560059 7.69727 0.59196 8.07096 0.655762 8.43555C0.710449 8.80924 0.794759 9.16699 0.908691 9.50879C1.02262 9.85059 1.16162 10.181 1.32568 10.5C1.48975 10.819 1.6766 11.1243 1.88623 11.416L1.0249 14.0137L3.70459 13.1523C4.26058 13.526 4.86442 13.8132 5.51611 14.0137C6.16781 14.2142 6.84912 14.3145 7.56006 14.3145C8.5262 14.3145 9.43311 14.1322 10.2808 13.7676C11.1284 13.3939 11.869 12.8903 12.5024 12.2568C13.1359 11.6234 13.6395 10.8828 14.0132 10.0352C14.3778 9.1875 14.5601 8.2806 14.5601 7.31445C14.5601 6.34831 14.3778 5.44141 14.0132 4.59375C13.6395 3.74609 13.1359 3.00553 12.5024 2.37207C11.869 1.73861 11.1284 1.23503 10.2808 0.861328C9.43311 0.496745 8.5262 0.314453 7.56006 0.314453ZM11.6343 10.1992C11.5522 10.4362 11.37 10.6458 11.0874 10.8281C10.8049 11.0104 10.5314 11.1289 10.2671 11.1836C10.0848 11.2292 9.82959 11.236 9.50146 11.2041C9.17334 11.1722 8.60824 10.9922 7.80615 10.6641C7.29574 10.4453 6.83089 10.1719 6.41162 9.84375C5.99235 9.50651 5.63232 9.17611 5.33154 8.85254C5.03076 8.52897 4.79378 8.24414 4.62061 7.99805C4.44743 7.75195 4.34717 7.61523 4.31982 7.58789C4.27425 7.51497 4.12614 7.26888 3.87549 6.84961C3.62484 6.43034 3.49951 5.97005 3.49951 5.46875C3.49951 4.96745 3.59294 4.58464 3.77979 4.32031C3.96663 4.05599 4.11019 3.8737 4.21045 3.77344C4.29248 3.68229 4.39958 3.61621 4.53174 3.5752C4.6639 3.53418 4.79378 3.51367 4.92139 3.51367C4.96696 3.51367 5.01025 3.51595 5.05127 3.52051C5.09229 3.52507 5.12646 3.52734 5.15381 3.52734C5.26318 3.52734 5.34749 3.54329 5.40674 3.5752C5.46598 3.6071 5.53206 3.70508 5.60498 3.86914C5.68701 4.06966 5.8055 4.35905 5.96045 4.7373C6.1154 5.11556 6.20654 5.33203 6.23389 5.38672C6.26123 5.43229 6.28174 5.48926 6.29541 5.55762C6.30908 5.62598 6.29769 5.69661 6.26123 5.76953C6.22477 5.83333 6.19059 5.88574 6.15869 5.92676C6.12679 5.96777 6.08805 6.02018 6.04248 6.08398C5.98779 6.14779 5.93538 6.20475 5.88525 6.25488C5.83512 6.30501 5.78271 6.36198 5.72803 6.42578C5.68245 6.48047 5.64372 6.53971 5.61182 6.60352C5.57992 6.66732 5.59131 6.75391 5.646 6.86328C5.7098 6.96354 5.83968 7.15495 6.03564 7.4375C6.23161 7.72005 6.47998 7.99805 6.78076 8.27148C7.17269 8.61784 7.51676 8.86165 7.81299 9.00293C8.10921 9.14421 8.31201 9.23763 8.42139 9.2832C8.51253 9.31966 8.60368 9.33105 8.69482 9.31738C8.78597 9.30371 8.85889 9.26497 8.91357 9.20117C8.99561 9.11914 9.08447 9.01204 9.18018 8.87988C9.27588 8.74772 9.3693 8.61328 9.46045 8.47656C9.53337 8.3763 9.61312 8.31706 9.69971 8.29883C9.7863 8.2806 9.87516 8.28971 9.96631 8.32617C10.0666 8.36263 10.299 8.46973 10.6636 8.64746C11.0282 8.8252 11.2606 8.93685 11.3608 8.98242C11.4611 9.03711 11.5454 9.0804 11.6138 9.1123C11.6821 9.14421 11.73 9.18294 11.7573 9.22852C11.7847 9.27409 11.7915 9.38802 11.7778 9.57031C11.7642 9.7526 11.7163 9.96224 11.6343 10.1992Z" fill="#407088"/>
</g>
<defs>
<clipPath id="clip0_859_608">
<rect width="14" height="14" fill="white" transform="matrix(1 0 0 -1 0.560059 14.3145)"/>
</clipPath>
</defs>
</svg>
