<svg width="24" height="24" viewBox="0 0 24 24" fill="none" xmlns="http://www.w3.org/2000/svg">
<path d="M13.6078 2.15991C14.0398 2.15991 14.4038 2.29591 14.6998 2.56791C14.9958 2.83991 15.1438 3.19191 15.1438 3.62391V4.89591H8.85583V3.62391C8.85583 3.19191 9.01183 2.83991 9.32383 2.56791C9.63583 2.29591 10.0078 2.15991 10.4398 2.15991H13.6078ZM6.19183 12.4079H17.8558L16.0078 8.47191H8.01583L6.19183 12.4079ZM20.4958 20.3039C20.4958 20.7679 20.3478 21.1319 20.0518 21.3959C19.7558 21.6599 19.3918 21.7919 18.9598 21.7919C18.5278 21.7919 18.1518 21.6599 17.8318 21.3959C17.5118 21.1319 17.3518 20.7679 17.3518 20.3039V19.3199H6.69583V20.3039C6.69583 20.7679 6.53583 21.1319 6.21583 21.3959C5.89583 21.6599 5.52783 21.7919 5.11183 21.7919C4.66383 21.7919 4.28783 21.6599 3.98383 21.3959C3.67983 21.1319 3.52783 20.7679 3.52783 20.3039V12.4079L6.16783 6.67191C6.27983 6.47991 6.43183 6.32391 6.62383 6.20391C6.81583 6.08391 7.01583 6.02391 7.22383 6.02391H16.6558C16.9118 6.02391 17.1518 6.06391 17.3758 6.14391C17.5998 6.22391 17.7758 6.39991 17.9038 6.67191L20.4958 12.4079V20.3039ZM7.24783 14.2319C6.86383 14.2319 6.53583 14.3679 6.26383 14.6399C5.99183 14.9119 5.85583 15.2559 5.85583 15.6719C5.85583 16.0719 5.99183 16.4079 6.26383 16.6799C6.53583 16.9519 6.86383 17.0879 7.24783 17.0879C7.64783 17.0879 7.98783 16.9519 8.26783 16.6799C8.54783 16.4079 8.68783 16.0719 8.68783 15.6719C8.68783 15.2559 8.54783 14.9119 8.26783 14.6399C7.98783 14.3679 7.64783 14.2319 7.24783 14.2319ZM16.7758 14.2319C16.3758 14.2319 16.0358 14.3679 15.7558 14.6399C15.4758 14.9119 15.3358 15.2559 15.3358 15.6719C15.3358 16.0719 15.4758 16.4079 15.7558 16.6799C16.0358 16.9519 16.3758 17.0879 16.7758 17.0879C17.1758 17.0879 17.5158 16.9519 17.7958 16.6799C18.0758 16.4079 18.2158 16.0719 18.2158 15.6719C18.2158 15.2559 18.0758 14.9119 17.7958 14.6399C17.5158 14.3679 17.1758 14.2319 16.7758 14.2319Z" fill="black"/>
</svg>
