<svg width="15" height="14" viewBox="0 0 15 14" fill="none" xmlns="http://www.w3.org/2000/svg">
<path d="M7.56006 0.0488281C11.3062 0.0488281 14.3413 3.08398 14.3413 6.83008C14.3413 10.5762 11.3062 13.6113 7.56006 13.6113C3.81396 13.6113 0.778809 10.5762 0.778809 6.83008C0.778809 3.08398 3.81396 0.0488281 7.56006 0.0488281ZM10.0757 8.60742C10.1304 8.55273 10.1851 8.44336 10.1851 8.33398C10.1851 8.19727 10.103 8.08789 10.021 8.00586L8.43506 6.83008V2.89258C8.43506 2.67383 8.21631 2.45508 7.99756 2.45508H7.12256C6.87646 2.45508 6.68506 2.67383 6.68506 2.89258V7.1582C6.68506 7.51367 6.82178 7.81445 7.09521 8.00586L8.92725 9.37305C8.98193 9.42773 9.09131 9.48242 9.17334 9.48242C9.3374 9.48242 9.44678 9.40039 9.52881 9.29102L10.0757 8.60742Z" fill="#407088"/>
</svg>
