<svg width="107" height="107" viewBox="0 0 107 107" fill="none" xmlns="http://www.w3.org/2000/svg">
<rect x="2" y="2.39014" width="103" height="103" rx="51.5" stroke="#FCC5C0" stroke-width="3"/>
<g clip-path="url(#clip0_859_483)">
<path d="M76.1562 67.855C75.0495 66.7157 73.6172 65.853 71.8594 65.2671C70.1016 64.6812 68.0508 64.3882 65.707 64.3882C60.6615 64.3882 57.2272 63.5174 55.4043 61.7759C53.5814 60.0343 51.6445 57.3244 49.5938 53.646C49.4635 53.4181 49.3333 53.1903 49.2031 52.9624C49.0729 52.7345 48.9427 52.5067 48.8125 52.2788C47.1849 49.3817 45.5898 46.8426 44.0273 44.6616C42.4974 42.5132 41.1302 40.7147 39.9258 39.2661C38.7214 37.8175 37.7448 36.7189 36.9961 35.9702C36.2474 35.2215 35.8405 34.8146 35.7754 34.7495C35.6777 34.6844 35.5638 34.6274 35.4336 34.5786C35.3034 34.5298 35.1732 34.5054 35.043 34.5054C34.9128 34.5054 34.7826 34.5379 34.6523 34.603C34.5221 34.6681 34.4245 34.7495 34.3594 34.8472C31.8854 37.6792 30.2985 40.2264 29.5986 42.4888C28.8988 44.7511 28.5326 46.4683 28.5 47.6401C28.5 47.7703 28.5 47.9168 28.5 48.0796C28.5 48.2423 28.5163 48.4051 28.5488 48.5679C28.5488 48.5679 28.5488 48.576 28.5488 48.5923C28.5488 48.6086 28.5488 48.6167 28.5488 48.6167C28.5814 48.9748 28.6546 49.3247 28.7686 49.6665C28.8825 50.0083 29.0208 50.342 29.1836 50.6675C29.5417 51.4162 29.859 52.1812 30.1357 52.9624C30.4124 53.7437 30.6484 54.5412 30.8438 55.355C31.0391 56.1688 31.1855 56.9907 31.2832 57.8208C31.3809 58.6509 31.4297 59.4891 31.4297 60.3354V73.519C31.4297 73.7795 31.5273 74.0073 31.7227 74.2026C31.918 74.3979 32.1458 74.4956 32.4062 74.4956H36.166C36.4264 74.4956 36.6543 74.3979 36.8496 74.2026C37.0449 74.0073 37.1426 73.7795 37.1426 73.519V54.0366C38.4772 54.7853 39.7712 55.8921 41.0244 57.3569C42.2777 58.8218 44.1901 61.6375 46.7617 65.8042C47.9987 67.8224 49.138 69.4338 50.1797 70.6382C51.2214 71.8426 52.2467 72.7541 53.2559 73.3726C54.1999 73.8934 55.1113 74.2108 55.9902 74.3247C56.8691 74.4386 57.748 74.4956 58.627 74.4956C58.6921 74.4956 58.7572 74.4956 58.8223 74.4956C58.8874 74.4956 58.9525 74.4956 59.0176 74.4956C59.0827 74.4956 59.1478 74.4956 59.2129 74.4956C59.278 74.4956 59.3431 74.4956 59.4082 74.4956H77.5234C77.7839 74.4956 78.0117 74.4061 78.207 74.2271C78.4023 74.048 78.5 73.8283 78.5 73.5679C78.5 73.5028 78.4105 72.8599 78.2314 71.6392C78.0524 70.4185 77.3607 69.1571 76.1562 67.855ZM35.1406 72.4937H33.4316V60.3354C33.4316 59.424 33.3747 58.5125 33.2607 57.6011C33.1468 56.6896 32.9922 55.7944 32.7969 54.9155C32.6667 54.3296 32.512 53.7599 32.333 53.2065C32.154 52.6532 31.9668 52.116 31.7715 51.5952C32.39 51.9533 33.0085 52.2625 33.627 52.5229C34.2454 52.7834 34.75 52.9787 35.1406 53.1089V72.4937ZM59.4082 72.4937C59.3431 72.4937 59.278 72.4937 59.2129 72.4937C59.1478 72.4937 59.0827 72.4937 59.0176 72.4937C58.0736 72.5262 57.2354 72.5018 56.5029 72.4204C55.7705 72.339 55.0299 72.0705 54.2812 71.6147C53.4349 71.1265 52.5397 70.3208 51.5957 69.1978C50.6517 68.0747 49.61 66.5854 48.4707 64.73C45.4759 59.9123 43.2705 56.7547 41.8545 55.2573C40.4385 53.7599 38.6888 52.5229 36.6055 51.5464C36.6055 51.5138 36.6055 51.4976 36.6055 51.4976C36.5729 51.4976 36.5566 51.4976 36.5566 51.4976C36.5566 51.4976 36.5404 51.4976 36.5078 51.4976C36.5078 51.4976 36.4997 51.4976 36.4834 51.4976C36.4671 51.4976 36.459 51.4976 36.459 51.4976C35.5475 51.172 34.4489 50.6919 33.1631 50.0571C31.8773 49.4224 30.9902 48.7795 30.502 48.1284C30.502 48.0633 30.502 47.9901 30.502 47.9087C30.502 47.8273 30.502 47.7541 30.502 47.689C30.5345 46.7124 30.8356 45.2882 31.4053 43.4165C31.9749 41.5448 33.2363 39.4045 35.1895 36.9956C35.6452 37.4513 36.2799 38.1349 37.0938 39.0464C37.9076 39.9578 38.8434 41.089 39.9014 42.4399C40.9593 43.7909 42.1068 45.3615 43.3438 47.1519C44.5482 48.9748 45.8014 51.0093 47.1035 53.2554C47.2337 53.4832 47.3558 53.7111 47.4697 53.939C47.5837 54.1668 47.7057 54.3947 47.8359 54.6226C48.8776 56.478 49.8704 58.1382 50.8145 59.603C51.7585 61.0679 52.8652 62.3049 54.1348 63.314C55.4694 64.3556 57.0645 65.1287 58.9199 65.6333C60.7754 66.1379 63.0378 66.3901 65.707 66.3901C67.7578 66.3901 69.5319 66.6261 71.0293 67.0981C72.5267 67.5701 73.7474 68.2782 74.6914 69.2222C75.2448 69.8081 75.6517 70.394 75.9121 70.98C76.1725 71.5659 76.3353 72.0705 76.4004 72.4937H59.4082ZM35.7754 41.5366C35.1243 41.5366 34.7988 41.8703 34.7988 42.5376C34.7988 43.2049 35.1243 43.5386 35.7754 43.5386C36.3939 43.5386 36.7031 43.2049 36.7031 42.5376C36.7031 41.8703 36.3939 41.5366 35.7754 41.5366ZM33.627 44.8081C33.0085 44.8081 32.6992 45.1418 32.6992 45.8091C32.6992 46.4764 33.0085 46.8101 33.627 46.8101C34.278 46.8101 34.6035 46.4764 34.6035 45.8091C34.6035 45.1418 34.278 44.8081 33.627 44.8081ZM37.875 44.8081C37.224 44.8081 36.8984 45.1418 36.8984 45.8091C36.8984 46.4764 37.224 46.8101 37.875 46.8101C38.4935 46.8101 38.8027 46.4764 38.8027 45.8091C38.8027 45.1418 38.4935 44.8081 37.875 44.8081ZM67.6113 68.6851C66.9603 68.6851 66.6348 69.0187 66.6348 69.686C66.6348 70.3534 66.9603 70.687 67.6113 70.687C68.2298 70.687 68.5391 70.3534 68.5391 69.686C68.5391 69.0187 68.2298 68.6851 67.6113 68.6851ZM64.3887 68.6851H58.2363C57.9434 68.6851 57.6992 68.7827 57.5039 68.978C57.3086 69.1733 57.2109 69.4012 57.2109 69.6616C57.2109 69.9546 57.3086 70.1987 57.5039 70.394C57.6992 70.5894 57.9434 70.687 58.2363 70.687H64.3887C64.6816 70.687 64.9258 70.5894 65.1211 70.394C65.3164 70.1987 65.4141 69.9546 65.4141 69.6616C65.4141 69.4012 65.3164 69.1733 65.1211 68.978C64.9258 68.7827 64.6816 68.6851 64.3887 68.6851Z" fill="#FCC5C0"/>
</g>
<defs>
<clipPath id="clip0_859_483">
<rect width="50" height="50" fill="white" transform="matrix(1 0 0 -1 28.5 78.8901)"/>
</clipPath>
</defs>
</svg>
