<svg width="13" height="14" viewBox="0 0 13 14" fill="none" xmlns="http://www.w3.org/2000/svg">
<path d="M12.4819 13.1348C12.646 13.1348 12.8101 13.2988 12.8101 13.4629V14.0098H0.560059V13.4629C0.560059 13.2988 0.696777 13.1348 0.888184 13.1348H1.43506V0.666016C1.43506 0.310547 1.7085 0.00976562 2.09131 0.00976562H11.2788C11.6343 0.00976562 11.9351 0.310547 11.9351 0.666016V13.1348H12.4819ZM4.06006 2.08789V3.18164C4.06006 3.37305 4.19678 3.50977 4.38818 3.50977H5.48193C5.646 3.50977 5.81006 3.37305 5.81006 3.18164V2.08789C5.81006 1.92383 5.646 1.75977 5.48193 1.75977H4.38818C4.19678 1.75977 4.06006 1.92383 4.06006 2.08789ZM4.06006 4.71289V5.80664C4.06006 5.99805 4.19678 6.13477 4.38818 6.13477H5.48193C5.646 6.13477 5.81006 5.99805 5.81006 5.80664V4.71289C5.81006 4.54883 5.646 4.38477 5.48193 4.38477H4.38818C4.19678 4.38477 4.06006 4.54883 4.06006 4.71289ZM5.48193 8.75977C5.646 8.75977 5.81006 8.62305 5.81006 8.43164V7.33789C5.81006 7.17383 5.646 7.00977 5.48193 7.00977H4.38818C4.19678 7.00977 4.06006 7.17383 4.06006 7.33789V8.43164C4.06006 8.62305 4.19678 8.75977 4.38818 8.75977H5.48193ZM7.56006 13.1348V10.8379C7.56006 10.6738 7.396 10.5098 7.23193 10.5098H6.13818C5.94678 10.5098 5.81006 10.6738 5.81006 10.8379V13.1348H7.56006ZM9.31006 8.43164V7.33789C9.31006 7.17383 9.146 7.00977 8.98193 7.00977H7.88818C7.69678 7.00977 7.56006 7.17383 7.56006 7.33789V8.43164C7.56006 8.62305 7.69678 8.75977 7.88818 8.75977H8.98193C9.146 8.75977 9.31006 8.62305 9.31006 8.43164ZM9.31006 5.80664V4.71289C9.31006 4.54883 9.146 4.38477 8.98193 4.38477H7.88818C7.69678 4.38477 7.56006 4.54883 7.56006 4.71289V5.80664C7.56006 5.99805 7.69678 6.13477 7.88818 6.13477H8.98193C9.146 6.13477 9.31006 5.99805 9.31006 5.80664ZM9.31006 3.18164V2.08789C9.31006 1.92383 9.146 1.75977 8.98193 1.75977H7.88818C7.69678 1.75977 7.56006 1.92383 7.56006 2.08789V3.18164C7.56006 3.37305 7.69678 3.50977 7.88818 3.50977H8.98193C9.146 3.50977 9.31006 3.37305 9.31006 3.18164Z" fill="#407088"/>
<a href="https://www.figma.com/design/RonDCN8VjVO2l89FFDN3oX?node-id=1-249">
<rect fill="black" fill-opacity="0" y="-1.05" width="12.25" height="16.1"/>
</a>
</svg>
