<svg width="15" height="15" viewBox="0 0 15 15" fill="none" xmlns="http://www.w3.org/2000/svg">
<path d="M14.1499 10.6182C14.3687 10.7275 14.5327 10.9736 14.5327 11.2471C14.5327 11.2744 14.5327 11.3291 14.5327 11.3838L13.8765 14.2275C13.7944 14.5283 13.5483 14.7197 13.2476 14.7197C6.22021 14.7197 0.560059 9.05957 0.560059 2.03223C0.560059 1.73145 0.751465 1.48535 1.05225 1.40332L3.896 0.74707C3.95068 0.74707 4.00537 0.719727 4.03271 0.719727C4.30615 0.719727 4.55225 0.883789 4.66162 1.12988L5.97412 4.19238C6.00146 4.27441 6.02881 4.35645 6.02881 4.43848C6.02881 4.65723 5.91943 4.84863 5.78271 4.95801L4.11475 6.3252C5.12646 8.45801 6.82178 10.1533 8.95459 11.165L10.3218 9.49707C10.4312 9.36035 10.6226 9.25098 10.814 9.25098C10.9233 9.25098 11.0054 9.27832 11.0874 9.30566L14.1499 10.6182Z" fill="#407088"/>
</svg>
