<svg width="107" height="107" viewBox="0 0 107 107" fill="none" xmlns="http://www.w3.org/2000/svg">
<rect x="2" y="2.39014" width="103" height="103" rx="51.5" stroke="#FCC5C0" stroke-width="3"/>
<g clip-path="url(#clip0_859_496)">
<path d="M78.2561 54.2808L77.426 53.3042C77.3609 53.174 77.2633 53.0845 77.1331 53.0356C77.0028 52.9868 76.8889 52.9461 76.7913 52.9136C76.6611 52.9136 76.5308 52.938 76.4006 52.9868C76.2704 53.0356 76.1565 53.0926 76.0588 53.1577L73.3733 55.4526C73.5035 53.2716 73.3326 51.1151 72.8606 48.9829C72.3886 46.8507 71.6155 44.8244 70.5413 42.9038C69.5647 41.146 68.3765 39.5509 66.9768 38.1187C65.5445 36.7189 63.982 35.5226 62.2893 34.5298C60.5966 33.5369 58.79 32.7638 56.8694 32.2104C54.9488 31.6896 52.9631 31.4292 50.9124 31.4292C49.0243 31.4292 47.1526 31.6733 45.2971 32.1616C43.4417 32.6499 41.6676 33.366 39.9749 34.3101C38.6728 35.0262 37.4683 35.8563 36.3616 36.8003C35.2548 37.7769 34.2457 38.8348 33.3342 39.9741C32.4228 41.1134 31.6415 42.3341 30.9905 43.6362C30.3069 44.9709 29.7698 46.3543 29.3792 47.7866C28.956 49.2189 28.6793 50.6675 28.5491 52.1323C28.4514 53.6297 28.484 55.0946 28.6467 56.5269C28.8095 57.9591 29.1187 59.3752 29.5745 60.7749C30.0302 62.1746 30.6324 63.5256 31.3811 64.8276C32.3577 66.618 33.5458 68.2131 34.9456 69.6128C36.3453 71.0451 37.8915 72.2576 39.5842 73.2505C41.2769 74.2433 43.0836 75.0002 45.0042 75.521C46.9247 76.0744 48.9104 76.3511 50.9612 76.3511C51.3518 76.3511 51.7587 76.3348 52.1819 76.3022C52.6051 76.2697 53.0282 76.2371 53.4514 76.2046C53.7118 76.172 53.9234 76.05 54.0862 75.8384C54.2489 75.6268 54.314 75.3908 54.2815 75.1304L54.135 73.812C54.1025 73.5516 53.9885 73.34 53.7932 73.1772C53.5979 73.0145 53.3538 72.9494 53.0608 72.9819C52.7027 73.0145 52.3528 73.0389 52.011 73.0552C51.6692 73.0715 51.3193 73.0796 50.9612 73.0796C49.2034 73.0796 47.5107 72.8517 45.8831 72.396C44.2555 71.9403 42.7174 71.2892 41.2688 70.4429C39.8202 69.5965 38.4937 68.5711 37.2893 67.3667C36.0849 66.1297 35.0595 64.7625 34.2131 63.2651C32.9111 60.9539 32.1298 58.5288 31.8694 55.9897C31.609 53.4832 31.8124 51.0418 32.4797 48.6655C33.1471 46.2892 34.262 44.1082 35.8245 42.1226C37.3544 40.1043 39.275 38.4442 41.5862 37.1421C43.0185 36.3283 44.524 35.7179 46.1028 35.311C47.6816 34.9041 49.2847 34.7007 50.9124 34.7007C52.6702 34.7007 54.3629 34.9285 55.9905 35.3843C57.6506 35.84 59.205 36.491 60.6536 37.3374C62.1021 38.1838 63.4286 39.2091 64.6331 40.4136C65.8375 41.618 66.8629 42.9852 67.7092 44.5151C68.6207 46.1753 69.2799 47.9168 69.6868 49.7397C70.0937 51.5627 70.232 53.4019 70.1018 55.2573L67.7092 52.4253C67.5465 52.23 67.3267 52.116 67.05 52.0835C66.7734 52.0509 66.5374 52.1323 66.342 52.3276L65.3167 53.1577C65.219 53.2554 65.1458 53.3612 65.0969 53.4751C65.0481 53.589 65.0074 53.7111 64.9749 53.8413C64.9749 53.9715 64.9911 54.0936 65.0237 54.2075C65.0562 54.3215 65.1213 54.4272 65.219 54.5249L70.4924 60.8237C70.5901 60.9214 70.704 61.0028 70.8342 61.0679C70.9644 61.133 71.0946 61.1655 71.2249 61.1655C71.3551 61.1655 71.469 61.1493 71.5667 61.1167C71.6643 61.0841 71.762 61.019 71.8596 60.9214L78.1584 55.6479C78.2561 55.5828 78.3375 55.4933 78.4026 55.3794C78.4677 55.2655 78.5002 55.1434 78.5002 55.0132C78.5002 54.883 78.484 54.7528 78.4514 54.6226C78.4189 54.4923 78.3538 54.3784 78.2561 54.2808ZM62.6799 72.396H59.6038L61.4104 70.1011C62.6148 68.7013 63.274 67.5213 63.3879 66.561C63.5019 65.6007 63.4449 64.8439 63.217 64.2905C62.9566 63.7046 62.5334 63.2407 61.9475 62.8989C61.3616 62.5571 60.7105 62.37 59.9944 62.3374C59.1806 62.3374 58.4156 62.549 57.6995 62.9722C56.9833 63.3953 56.4462 63.965 56.0881 64.6812C56.0556 64.7463 56.0393 64.8195 56.0393 64.9009C56.0393 64.9823 56.0556 65.0555 56.0881 65.1206C56.0881 65.1857 56.1207 65.2508 56.1858 65.3159C56.2509 65.381 56.316 65.4299 56.3811 65.4624L57.4065 65.9995C57.5693 66.0646 57.7239 66.0728 57.8704 66.0239C58.0168 65.9751 58.1226 65.8693 58.1877 65.7065C58.3831 65.3485 58.6516 65.0881 58.9934 64.9253C59.3352 64.7625 59.6526 64.6812 59.9456 64.6812C60.2385 64.6812 60.4827 64.7381 60.678 64.8521C60.8733 64.966 61.0035 65.1043 61.0686 65.2671C61.1988 65.5275 61.1663 65.9425 60.9709 66.5122C60.7756 67.0819 60.3362 67.7899 59.6526 68.6362C59.6526 68.6362 59.6444 68.6362 59.6282 68.6362C59.6119 68.6362 59.6038 68.6362 59.6038 68.6362L55.4534 73.812C55.3883 73.8771 55.3557 73.9666 55.3557 74.0806C55.3557 74.1945 55.372 74.3003 55.4045 74.3979C55.4696 74.4956 55.5429 74.577 55.6243 74.6421C55.7056 74.7072 55.8114 74.7397 55.9417 74.7397H62.6799C62.8427 74.7397 62.981 74.6828 63.095 74.5688C63.2089 74.4549 63.2659 74.3166 63.2659 74.1538V72.9819C63.2659 72.8192 63.2089 72.6808 63.095 72.5669C62.981 72.453 62.8427 72.396 62.6799 72.396ZM72.5432 69.9546H72.0061V63.2651C72.0061 63.1349 71.9491 63.0047 71.8352 62.8745C71.7213 62.7443 71.5829 62.6792 71.4202 62.6792H70.2483C70.1506 62.6792 70.0611 62.7036 69.9797 62.7524C69.8984 62.8013 69.8251 62.8745 69.76 62.9722L63.803 71.3706C63.7379 71.4683 63.7053 71.5741 63.7053 71.688C63.7053 71.8019 63.7216 71.9077 63.7542 72.0054C63.8193 72.103 63.9006 72.1763 63.9983 72.2251C64.0959 72.2739 64.1936 72.2983 64.2913 72.2983H69.6624V74.0562C69.6624 74.2189 69.7193 74.3573 69.8333 74.4712C69.9472 74.5851 70.0855 74.6421 70.2483 74.6421H71.4202C71.5829 74.6421 71.7213 74.5851 71.8352 74.4712C71.9491 74.3573 72.0061 74.2189 72.0061 74.0562V72.2983H72.5432C72.706 72.2983 72.8443 72.2414 72.9583 72.1274C73.0722 72.0135 73.1292 71.8752 73.1292 71.7124V70.5405C73.1292 70.3778 73.0722 70.2394 72.9583 70.1255C72.8443 70.0116 72.706 69.9546 72.5432 69.9546ZM69.6624 69.9546H67.6604L69.6624 67.1714V69.9546ZM62.6311 43.1479L61.7034 42.2202C61.6383 42.1551 61.5732 42.1063 61.5081 42.0737C61.443 42.0412 61.3616 42.0249 61.2639 42.0249C61.1663 42.0249 61.0767 42.0412 60.9954 42.0737C60.914 42.1063 60.8407 42.1551 60.7756 42.2202L50.9612 52.0347L44.8577 45.9312C44.7926 45.866 44.7193 45.8172 44.6379 45.7847C44.5566 45.7521 44.467 45.7358 44.3694 45.7358C44.3043 45.7358 44.231 45.7521 44.1497 45.7847C44.0683 45.8172 43.995 45.866 43.9299 45.9312L43.0022 46.8589C42.872 46.9891 42.8069 47.1437 42.8069 47.3228C42.8069 47.5018 42.872 47.6564 43.0022 47.7866L50.4729 55.2573C50.538 55.3224 50.6112 55.3713 50.6926 55.4038C50.774 55.4364 50.8635 55.4526 50.9612 55.4526C51.0588 55.4526 51.1402 55.4364 51.2053 55.4038C51.2704 55.3713 51.3355 55.3224 51.4006 55.2573L62.6311 44.0269C62.7613 43.8966 62.8264 43.742 62.8264 43.563C62.8264 43.384 62.7613 43.2456 62.6311 43.1479Z" fill="#FCC5C0"/>
</g>
<defs>
<clipPath id="clip0_859_496">
<rect width="50" height="50" fill="white" transform="matrix(1 0 0 -1 28.5 78.8901)"/>
</clipPath>
</defs>
</svg>
